# xmcd CD database file
#
# Track frame offsets:
#	150
#	30030
#	50955
#	77922
#	92195
#	121370
#	153302
#	183542
#	207087
#	214015
#	248042
#	269815
#
# Disc length: 3892 seconds
#
# Revision: 0
# Processed by: cddbd v1.5.2PL0 Copyright (c) Steve Scherf et al.
# Submitted via: CDex 1.70beta2
#
DISCID=a80f320c
DTITLE=Steve Shapiro - Xylophobia
DYEAR=2001
DGENRE=Jazz
TTITLE0=Superdeluxe
TTITLE1=Circular Bossa
TTITLE2=Xylophobia
TTITLE3=Just You
TTITLE4=Ennui
TTITLE5=A Remark You Made
TTITLE6=And Then...
TTITLE7=Miltology
TTITLE8=Semblence
TTITLE9=Fuzzy Logic
TTITLE10=Sam's Tune
TTITLE11=Rain
EXTD=YEAR: 2001
EXTT0=
EXTT1=
EXTT2=
EXTT3=
EXTT4=
EXTT5=
EXTT6=
EXTT7=
EXTT8=
EXTT9=
EXTT10=
EXTT11=
PLAYORDER=
